<svg xmlns="http://www.w3.org/2000/svg" width="61" height="60" viewBox="0 0 61 60" fill="none">
  <path fill-rule="evenodd" clip-rule="evenodd" d="M33.3748 1.15022L59.4928 27.2682C61.0233 28.8018 61.0233 31.2847 59.4928 32.8121L33.3748 58.9301C31.8412 60.4637 29.3584 60.4637 27.8247 58.9301L23.6351 54.7404L23.6353 54.7401C24.1547 53.859 24.6741 52.9779 25.1811 52.0875C25.7222 51.1383 26.5508 50.6157 27.5557 50.5755C29.8593 50.489 32.0391 49.9324 34.219 49.2491C35.4867 48.8502 36.1545 48.1329 35.9597 46.7879C35.8591 46.1082 35.6008 45.4453 35.3465 44.7928C35.3116 44.7032 35.2767 44.6138 35.2424 44.5245C35.026 43.9649 34.9858 43.5413 35.6691 43.331C36.674 43.0218 36.9523 42.4405 36.2751 41.516C37.1532 41.179 37.3264 40.6286 37.0543 39.7752C36.6245 38.4364 36.9986 37.8799 38.3158 37.4903C38.9002 37.3171 39.4877 37.0821 40.004 36.7606C40.641 36.3648 40.978 35.7557 40.6101 34.992C40.2834 34.3137 39.9487 33.6387 39.614 32.9634C38.9507 31.6254 38.2872 30.2869 37.6851 28.9224C37.4377 28.3627 37.3202 27.4815 37.5923 27.0115C38.1612 26.0252 38.0932 25.0822 37.9479 24.0742C37.9018 23.7591 37.8494 23.4441 37.797 23.1289C37.6771 22.4077 37.5571 21.6856 37.5119 20.9605C37.4945 20.6854 37.4659 20.4018 37.437 20.1156C37.3374 19.1284 37.2347 18.1106 37.5799 17.3027C38.3507 15.4937 37.4923 14.1529 36.7043 12.9219C36.6451 12.8294 36.5863 12.7376 36.5287 12.6462C35.3073 10.7106 29.2192 7.00953 28.3256 6.68796C26.8167 6.14686 25.28 5.67688 23.734 5.24091L27.8247 1.15022C29.3584 -0.383402 31.8412 -0.383402 33.3748 1.15022ZM23.7309 23.8948C23.7928 22.624 24.8348 21.6099 26.121 21.6099C27.4475 21.6099 28.5235 22.6859 28.5297 24.0154C28.5297 25.3419 27.4537 26.4179 26.1272 26.4179C26.0991 26.4179 26.072 26.4139 26.0447 26.4099C26.024 26.4068 26.0033 26.4038 25.9819 26.4024L24.6555 31.328C25.4377 31.733 25.9788 32.54 25.9788 33.48C25.9788 34.8219 24.8904 35.9103 23.5485 35.9103C23.0847 35.9103 22.6549 35.7742 22.287 35.5485L18.1654 40.7987C18.5086 41.2594 18.7158 41.8283 18.7158 42.4467C18.7158 43.1888 18.422 43.8598 17.9459 44.3576L20.0762 46.7477C20.4349 46.5374 20.8492 46.4075 21.2945 46.4075C22.6364 46.4075 23.7248 47.4959 23.7248 48.8378C23.7248 50.1798 22.6364 51.2681 21.2945 51.2681C19.9525 51.2681 18.8642 50.1798 18.8642 48.8378C18.8642 48.2906 19.0497 47.7897 19.3558 47.3846L17.1667 44.9234C16.7987 45.1027 16.3875 45.2079 15.9515 45.2079C14.4241 45.2079 13.1873 43.9711 13.1873 42.4436C13.1873 40.9162 14.4241 39.6794 15.9515 39.6794C16.5081 39.6794 17.0275 39.8464 17.4635 40.1308L21.5789 34.8899C21.2914 34.4911 21.1182 34.0056 21.1182 33.4769C21.1182 32.135 22.2066 31.0466 23.5485 31.0466C23.5827 31.0466 23.6149 31.0513 23.6474 31.056C23.6737 31.0599 23.7002 31.0638 23.7279 31.0651L25.0512 26.152C24.5163 25.883 24.0958 25.4223 23.8825 24.8564H21.4367C21.2079 26.1551 20.0793 27.1414 18.7158 27.1414C17.2656 27.1414 16.0814 26.0252 15.9639 24.606L11.5145 24.1948C11.3661 24.6524 11.0878 25.0481 10.7168 25.3419L14.3684 30.5828C14.5632 30.5117 14.7704 30.4684 14.9899 30.4684C16.0103 30.4684 16.8358 31.2939 16.8358 32.3143C16.8358 33.3347 16.0103 34.1602 14.9899 34.1602C14.4334 34.1602 13.9417 33.9098 13.6016 33.5202L10.6457 34.9548C10.6952 35.1496 10.7292 35.3475 10.7292 35.5578C10.7292 36.8997 9.64079 37.9881 8.29887 37.9881C6.95695 37.9881 5.86858 36.8997 5.86858 35.5578C5.86858 35.128 5.98917 34.7291 6.18705 34.3767L3.26822 31.866C2.95902 32.0237 2.61582 32.1226 2.24478 32.1226C1.00489 32.1226 0 31.1177 0 29.8778C0 28.6379 1.00489 27.633 2.24478 27.633C3.48466 27.633 4.48955 28.6379 4.48955 29.8778C4.48955 30.3942 4.30713 30.8642 4.01648 31.2414L6.81163 33.6469C7.22287 33.3254 7.73304 33.1275 8.29578 33.1275C9.08115 33.1275 9.77375 33.5078 10.219 34.0891L13.1687 32.6575C13.1471 32.5431 13.1347 32.4287 13.1347 32.3112C13.1347 31.8598 13.3048 31.4516 13.5738 31.1301L9.84177 25.7717C9.64698 25.8211 9.446 25.8582 9.23265 25.8582C7.90619 25.8582 6.83018 24.7822 6.83018 23.4558C6.83018 22.1293 7.90619 21.0533 9.23265 21.0533C10.4849 21.0533 11.4991 22.0118 11.6135 23.2331L16.0474 23.6444C16.2824 22.7786 16.9317 22.0829 17.7665 21.7799L16.8791 16.7245C15.8248 16.6534 14.9868 15.7846 14.9868 14.7116C14.9868 13.5924 15.8928 12.6864 17.0121 12.6864C17.8005 12.6864 18.4777 13.1409 18.8116 13.7995L22.3334 12.974C22.3952 11.1528 23.8855 9.69646 25.7191 9.69646C27.5897 9.69646 29.1079 11.2115 29.1079 13.0853C29.1079 14.9559 27.5928 16.4741 25.7191 16.4741C24.1422 16.4741 22.8188 15.3919 22.4416 13.9325L19.0404 14.7302C19.0311 15.5496 18.5364 16.2515 17.8284 16.5637L18.7158 21.6099C20.0762 21.613 21.2048 22.5993 21.4336 23.8948H23.7309Z" fill="url(#paint0_linear)"/>
  <defs>
    <linearGradient id="paint0_linear" x1="0.120592" y1="60.1638" x2="60.7234" y2="-0.129853" gradientUnits="userSpaceOnUse">
      <stop stop-color="#0921FB"/>
      <stop offset="1" stop-color="#6BB0FD"/>
    </linearGradient>
  </defs>
</svg>











